<svg width="28" height="28" viewBox="0 0 28 28" fill="none" xmlns="http://www.w3.org/2000/svg">
<path d="M3.5 8.75H24.5C25.466 8.75 26.25 7.966 26.25 7C26.25 6.034 25.466 5.25 24.5 5.25H3.5C2.534 5.25 1.75 6.034 1.75 7C1.75 7.966 2.534 8.75 3.5 8.75ZM24.5 12.25H3.5C2.534 12.25 1.75 13.034 1.75 14C1.75 14.966 2.534 15.75 3.5 15.75H24.5C25.466 15.75 26.25 14.966 26.25 14C26.25 13.034 25.466 12.25 24.5 12.25ZM24.5 19.25H3.5C2.534 19.25 1.75 20.034 1.75 21C1.75 21.966 2.534 22.75 3.5 22.75H24.5C25.466 22.75 26.25 21.966 26.25 21C26.25 20.034 25.466 19.25 24.5 19.25Z" fill="#6CACE3"/>
</svg>
