<svg width="118" height="118" viewBox="0 0 118 118" fill="none" xmlns="http://www.w3.org/2000/svg">
<g clip-path="url(#clip0_727_4278)">
<path d="M59 0C47.3309 0 35.9239 3.46029 26.2214 9.94329C16.5189 16.4263 8.95671 25.6408 4.49113 36.4217C0.0255639 47.2025 -1.14283 59.0654 1.1337 70.5103C3.41022 81.9552 9.02943 92.468 17.2807 100.719C25.532 108.971 36.0448 114.59 47.4897 116.866C58.9346 119.143 70.7975 117.974 81.5784 113.509C92.3592 109.043 101.574 101.481 108.057 91.7786C114.54 82.0761 118 70.6691 118 59C117.983 43.3574 111.762 28.3604 100.701 17.2994C89.6397 6.2384 74.6426 0.0169186 59 0V0ZM59 108.167C49.2758 108.167 39.7699 105.283 31.6845 99.8806C23.5991 94.4781 17.2973 86.7993 13.576 77.8153C9.85464 68.8312 8.88098 58.9455 10.7781 49.4081C12.6752 39.8707 17.3579 31.11 24.2339 24.2339C31.11 17.3578 39.8707 12.6752 49.4081 10.7781C58.9455 8.88095 68.8313 9.85461 77.8153 13.5759C86.7993 17.2972 94.4781 23.599 99.8806 31.6845C105.283 39.7699 108.167 49.2758 108.167 59C108.152 72.0354 102.968 84.5328 93.7503 93.7503C84.5329 102.968 72.0355 108.152 59 108.167V108.167Z" fill="white"/>
<path d="M44.2497 39.3333C42.9457 39.3333 41.6951 39.8513 40.7731 40.7733C39.851 41.6954 39.333 42.9459 39.333 44.2499V73.7499C39.333 75.0539 39.851 76.3045 40.7731 77.2265C41.6951 78.1486 42.9457 78.6666 44.2497 78.6666C45.5537 78.6666 46.8042 78.1486 47.7263 77.2265C48.6483 76.3045 49.1663 75.0539 49.1663 73.7499V44.2499C49.1663 42.9459 48.6483 41.6954 47.7263 40.7733C46.8042 39.8513 45.5537 39.3333 44.2497 39.3333Z" fill="white"/>
<path d="M73.7497 39.3333C72.4457 39.3333 71.1951 39.8513 70.2731 40.7733C69.351 41.6954 68.833 42.9459 68.833 44.2499V73.7499C68.833 75.0539 69.351 76.3045 70.2731 77.2265C71.1951 78.1486 72.4457 78.6666 73.7497 78.6666C75.0537 78.6666 76.3042 78.1486 77.2263 77.2265C78.1483 76.3045 78.6663 75.0539 78.6663 73.7499V44.2499C78.6663 42.9459 78.1483 41.6954 77.2263 40.7733C76.3042 39.8513 75.0537 39.3333 73.7497 39.3333Z" fill="white"/>
</g>
<defs>
<clipPath id="clip0_727_4278">
<rect width="118" height="118" fill="white"/>
</clipPath>
</defs>
</svg>
