<svg width="119" height="118" viewBox="0 0 119 118" fill="none" xmlns="http://www.w3.org/2000/svg">
<path d="M117.97 57.075C116.98 26.0769 91.9236 1.02087 60.9263 0.0309569C44.0597 -0.504178 28.2798 5.91578 16.6178 17.9563C5.40653 29.5313 -0.4841 44.7909 0.0311541 60.9261C1.02024 91.9234 26.0771 116.98 57.0744 117.969C57.7197 117.99 58.3592 118 59.0004 118C75.1157 118 90.1674 111.623 101.383 100.044C112.594 88.4698 118.486 73.2094 117.97 57.075ZM92.4579 91.3998C83.6041 100.541 71.7218 105.575 59.0004 105.575C58.4917 105.575 57.9831 105.567 57.4703 105.551C33.0066 104.77 13.2314 84.9948 12.4494 60.5302C12.0427 47.788 16.6924 35.7384 25.5428 26.6013C34.3966 17.4601 46.2789 12.426 59.0004 12.426C59.509 12.426 60.0176 12.4343 60.5304 12.4501C84.9942 13.2312 104.769 33.0064 105.551 57.471C105.958 70.2131 101.307 82.2628 92.4579 91.3998Z" fill="white"/>
<path d="M78.3542 55.5721L52.1906 36.8126C49.3998 34.8112 45.5146 36.8059 45.5146 40.2404V77.7603C45.5146 81.1948 49.3998 83.1895 52.1906 81.1882L78.3534 62.4278C80.701 60.7454 80.701 57.2554 78.3542 55.5721Z" fill="white"/>
</svg>
