<svg width="113" height="40" viewBox="0 0 113 40" fill="none" xmlns="http://www.w3.org/2000/svg">
<path d="M8 40L0 32H8V40Z" fill="#6CACE3"/>
<path d="M0 8C0 3.58172 3.58172 0 8 0H105C109.418 0 113 3.58172 113 8V24C113 28.4183 109.418 32 105 32H0V8Z" fill="#6CACE3"/>
<path fill-rule="evenodd" clip-rule="evenodd" d="M19.9996 10.1C20.2118 10.1 20.4153 10.1843 20.5653 10.3343C20.7153 10.4843 20.7996 10.6878 20.7996 10.9V11.7H21.5996C21.8118 11.7 22.0153 11.7843 22.1653 11.9343C22.3153 12.0843 22.3996 12.2878 22.3996 12.5C22.3996 12.7121 22.3153 12.9156 22.1653 13.0657C22.0153 13.2157 21.8118 13.3 21.5996 13.3H20.7996V14.1C20.7996 14.3121 20.7153 14.5156 20.5653 14.6657C20.4153 14.8157 20.2118 14.9 19.9996 14.9C19.7874 14.9 19.584 14.8157 19.4339 14.6657C19.2839 14.5156 19.1996 14.3121 19.1996 14.1V13.3H18.3996C18.1874 13.3 17.984 13.2157 17.8339 13.0657C17.6839 12.9156 17.5996 12.7121 17.5996 12.5C17.5996 12.2878 17.6839 12.0843 17.8339 11.9343C17.984 11.7843 18.1874 11.7 18.3996 11.7H19.1996V10.9C19.1996 10.6878 19.2839 10.4843 19.4339 10.3343C19.584 10.1843 19.7874 10.1 19.9996 10.1ZM19.9996 18.1C20.2118 18.1 20.4153 18.1843 20.5653 18.3343C20.7153 18.4843 20.7996 18.6878 20.7996 18.9V19.7H21.5996C21.8118 19.7 22.0153 19.7843 22.1653 19.9343C22.3153 20.0843 22.3996 20.2878 22.3996 20.5C22.3996 20.7121 22.3153 20.9156 22.1653 21.0657C22.0153 21.2157 21.8118 21.3 21.5996 21.3H20.7996V22.1C20.7996 22.3121 20.7153 22.5156 20.5653 22.6657C20.4153 22.8157 20.2118 22.9 19.9996 22.9C19.7874 22.9 19.584 22.8157 19.4339 22.6657C19.2839 22.5156 19.1996 22.3121 19.1996 22.1V21.3H18.3996C18.1874 21.3 17.984 21.2157 17.8339 21.0657C17.6839 20.9156 17.5996 20.7121 17.5996 20.5C17.5996 20.2878 17.6839 20.0843 17.8339 19.9343C17.984 19.7843 18.1874 19.7 18.3996 19.7H19.1996V18.9C19.1996 18.6878 19.2839 18.4843 19.4339 18.3343C19.584 18.1843 19.7874 18.1 19.9996 18.1ZM25.5996 10.1C25.7762 10.0999 25.9478 10.1583 26.0877 10.2659C26.2276 10.3736 26.328 10.5245 26.3732 10.6952L27.3164 14.26L29.9996 15.8072C30.1212 15.8774 30.2222 15.9784 30.2924 16.1C30.3626 16.2216 30.3996 16.3596 30.3996 16.5C30.3996 16.6404 30.3626 16.7783 30.2924 16.9C30.2222 17.0216 30.1212 17.1226 29.9996 17.1928L27.3164 18.7408L26.3724 22.3048C26.3271 22.4753 26.2268 22.626 26.0869 22.7336C25.9471 22.8411 25.7756 22.8994 25.5992 22.8994C25.4228 22.8994 25.2513 22.8411 25.1115 22.7336C24.9717 22.626 24.8713 22.4753 24.826 22.3048L23.8828 18.74L21.1996 17.1928C21.078 17.1226 20.977 17.0216 20.9068 16.9C20.8366 16.7783 20.7996 16.6404 20.7996 16.5C20.7996 16.3596 20.8366 16.2216 20.9068 16.1C20.977 15.9784 21.078 15.8774 21.1996 15.8072L23.8828 14.2592L24.8268 10.6952C24.872 10.5246 24.9722 10.3738 25.112 10.2662C25.2518 10.1585 25.4232 10.1001 25.5996 10.1Z" fill="white"/>
<path d="M39.78 13.6C40.452 13.6 41.012 13.736 41.46 14.008C41.908 14.28 42.236 14.632 42.444 15.064C42.66 15.496 42.768 15.956 42.768 16.444C42.768 16.932 42.664 17.392 42.456 17.824C42.248 18.248 41.92 18.592 41.472 18.856C41.024 19.12 40.46 19.252 39.78 19.252H38.184V22H36.756V13.6H39.78ZM39.564 18.04C40.068 18.04 40.492 17.92 40.836 17.68C41.18 17.432 41.352 17.02 41.352 16.444C41.352 15.876 41.18 15.476 40.836 15.244C40.5 15.004 40.076 14.884 39.564 14.884H38.184V18.04H39.564ZM47.4475 22.096C46.6315 22.096 45.9355 21.908 45.3595 21.532C44.7835 21.156 44.3475 20.644 44.0515 19.996C43.7555 19.34 43.6075 18.604 43.6075 17.788C43.6075 16.972 43.7555 16.236 44.0515 15.58C44.3475 14.916 44.7835 14.392 45.3595 14.008C45.9435 13.624 46.6395 13.432 47.4475 13.432C48.2475 13.432 48.9355 13.624 49.5115 14.008C50.0875 14.392 50.5235 14.912 50.8195 15.568C51.1155 16.224 51.2635 16.964 51.2635 17.788C51.2635 18.604 51.1155 19.34 50.8195 19.996C50.5235 20.644 50.0875 21.156 49.5115 21.532C48.9355 21.908 48.2475 22.096 47.4475 22.096ZM47.4475 20.776C48.1595 20.776 48.7155 20.496 49.1155 19.936C49.5155 19.376 49.7155 18.652 49.7155 17.764C49.7155 17.196 49.6275 16.684 49.4515 16.228C49.2755 15.772 49.0155 15.412 48.6715 15.148C48.3355 14.876 47.9275 14.74 47.4475 14.74C46.9675 14.74 46.5555 14.876 46.2115 15.148C45.8675 15.412 45.6035 15.776 45.4195 16.24C45.2435 16.696 45.1555 17.208 45.1555 17.776C45.1555 18.344 45.2435 18.856 45.4195 19.312C45.5955 19.76 45.8555 20.116 46.1995 20.38C46.5435 20.644 46.9595 20.776 47.4475 20.776ZM55.6617 13.6C56.3337 13.6 56.8937 13.736 57.3417 14.008C57.7897 14.28 58.1177 14.632 58.3257 15.064C58.5417 15.496 58.6497 15.956 58.6497 16.444C58.6497 16.932 58.5457 17.392 58.3377 17.824C58.1297 18.248 57.8017 18.592 57.3537 18.856C56.9057 19.12 56.3417 19.252 55.6617 19.252H54.0657V22H52.6377V13.6H55.6617ZM55.4457 18.04C55.9497 18.04 56.3737 17.92 56.7177 17.68C57.0617 17.432 57.2337 17.02 57.2337 16.444C57.2337 15.876 57.0617 15.476 56.7177 15.244C56.3817 15.004 55.9577 14.884 55.4457 14.884H54.0657V18.04H55.4457ZM63.0773 22.12C62.0293 22.12 61.1973 21.804 60.5813 21.172C59.9653 20.532 59.6573 19.58 59.6573 18.316V13.6H61.1093V18.232C61.1093 18.904 61.2453 19.488 61.5173 19.984C61.7893 20.48 62.3093 20.728 63.0773 20.728C63.8213 20.728 64.3333 20.48 64.6133 19.984C64.8933 19.488 65.0333 18.904 65.0333 18.232V13.6H66.4613V18.316C66.4613 19.58 66.1533 20.532 65.5373 21.172C64.9293 21.804 64.1093 22.12 63.0773 22.12ZM73.2233 20.716V22H68.0392L68.0272 13.6H69.4912L69.4792 20.716H73.2233ZM79.322 19.804H76.262L75.518 22H74.042L77.114 13.6H78.482L81.554 22H80.078L79.322 19.804ZM78.938 18.676L77.81 15.412H77.75L76.646 18.676H78.938ZM85.3431 18.856H84.1071V22H82.6551V13.6H85.6791C86.3511 13.6 86.9111 13.728 87.3591 13.984C87.8071 14.232 88.1351 14.56 88.3431 14.968C88.5591 15.368 88.6671 15.796 88.6671 16.252C88.6671 16.812 88.5111 17.32 88.1991 17.776C87.8871 18.224 87.4191 18.536 86.7951 18.712L88.7871 22H87.2511L85.3431 18.856ZM84.1071 17.656H85.4631C85.9671 17.656 86.3911 17.548 86.7351 17.332C87.0791 17.116 87.2511 16.756 87.2511 16.252C87.2511 15.748 87.0791 15.396 86.7351 15.196C86.3991 14.988 85.9751 14.884 85.4631 14.884H84.1071V17.656Z" fill="white"/>
</svg>
